<svg xmlns="http://www.w3.org/2000/svg" width="136" height="56" viewBox="0 0 136 56">
    <g fill="none" fill-rule="evenodd">
        <g fill="#F25B58" fill-rule="nonzero">
            <g>
                <path d="M60.665 19.529c-.486 2.416-1.019 4.82-1.6 7.21l-.029.034c-.902 1.59-2.422 2.73-4.196 3.15-2.729.603-2.886-1.319-2.676-3.346.198-1.703.581-3.378 1.143-4.997.143-.402.28-.784.4-1.138.376-1.085-2.572-2.343-2.963-1.305-.233.621-.514 1.372-.785 2.194-.595 1.675-1.351 3.288-2.258 4.815-.89 1.435-3.096 4.743-5.239 3.854-.542-.264-.977-.706-1.234-1.253 2.231-2.13 4.013-4.69 5.24-7.526 1.019-2.587 1.673-5.306 1.943-8.075.266-2.248.847-5.671-.7-7.584-1.344-1.654-3.777-2.056-5.24-.435-2.276 2.506-3.295 6.125-4.076 9.333-.953 3.873-2 9.138-.353 13.044-.89.802-1.865 1.506-2.905 2.1-2.034 1.142-3.939 1.18-5.268-.355 2.148-2.438 3.544-5.847 4.61-8.735 1.013-2.75 1.637-5.627 1.853-8.55.234-2.993.477-7-.647-9.83C35.123.699 33.399-.33 31.875.097c-1.525.426-2.715 2.596-3.477 3.916-3.196 5.56-3.93 12.298-3.415 18.59.15 1.981.71 3.91 1.643 5.661-1.087 1.209-2.572 1.981-4.182 2.176-1.8.172.605 2.075 1.639 1.98 1.592-.164 3.102-.792 4.343-1.808 1.487 1.422 3.53 2.098 5.568 1.841 2.102-.288 4.089-1.137 5.753-2.458.505.509 1.075.946 1.696 1.3 3.39 1.942 6.058.407 8.096-2.199.141.279.317.538.524.77 1.262 1.387 3.045 2.178 4.915 2.18-3.29 2.812-5.534 6.647-6.886 10.85-1.13 3.514-3.744 11.91 1.81 13.034 2.124.43 3.5-1.19 4.353-2.945 1.6-3.28 2.638-6.996 3.757-10.467 2.28-7.11 4.155-14.345 5.616-21.67.238-1.19-2.768-2.309-2.963-1.32zM30.703 6.504c.5-.994 1.068-1.953 1.7-2.869.053-.071.257-.296.476-.55.096.612.296 1.368.33 1.698.553 5.094-.11 10.247-1.935 15.033-.78 2.123-1.748 4.173-2.89 6.125-.347-1.633-.507-3.3-.477-4.968-.005-4.944.453-10.017 2.796-14.469zm10.325 10.72c.433-2.133 1.035-4.227 1.8-6.264.368-.927.807-1.824 1.315-2.682.236-.444.515-.864.834-1.253.8-.808.562-.43.628.517.23 4.12-.44 8.24-1.967 12.073-.825 2.003-1.95 3.868-3.333 5.532-.043-.387-.072-.736-.081-1.023-.039-2.326.232-4.646.804-6.9zm10.107 34.747c-.529 1.014-1.22 2.218-1.577.555-.261-1.23.215-2.936.439-4.141.412-2.237 1.05-4.425 1.905-6.532 1.164-2.928 2.952-5.565 5.239-7.726-.186.655-.362 1.314-.553 1.965-1.5 5.235-2.929 11.04-5.453 15.884v-.005zM12.131 2.63c-.167-.019-.336.02-.48.109C5.217 4.927.956 10.786.118 17.43c-.84 6.644 2.865 14.9 10.576 14.944 7.711.042 11.239-8.861 11.895-15.22.676-6.53-3.033-14.36-10.457-14.526zm6.48 17.754c-.65 2.422-1.763 4.697-3.278 6.702-1.855 2.283-5.325 4.452-8.23 2.649-4.993-3.096-4.61-10.849-2.793-15.567 1.624-4.433 5.15-7.919 9.623-9.512 3.192.19 4.956 4.542 5.43 7.134.518 2.868.081 5.84-.752 8.594zM133.023 19.529c-.486 2.413-1.014 4.816-1.586 7.21 0 0-.024 0-.033.034-.902 1.588-2.42 2.729-4.193 3.15-2.734.603-2.892-1.319-2.677-3.346.194-1.703.576-3.379 1.138-4.997.148-.402.281-.784.405-1.138.372-1.085-2.577-2.343-2.968-1.305-.233.621-.51 1.372-.781 2.194-.599 1.674-1.355 3.286-2.258 4.815-.896 1.435-3.102 4.743-5.24 3.854-.542-.265-.977-.707-1.235-1.253 2.231-2.131 4.013-4.69 5.24-7.526 1.035-2.59 1.702-5.313 1.983-8.09.271-2.247.852-5.67-.7-7.583-1.344-1.655-3.774-2.056-5.241-.435-2.277 2.505-3.297 6.125-4.078 9.333-.953 3.873-2.001 9.137-.348 13.044-.893.8-1.867 1.503-2.906 2.099-2.034 1.143-3.94 1.181-5.274-.354 2.153-2.438 3.544-5.848 4.616-8.736.99-2.748 1.595-5.62 1.801-8.534.229-2.994.477-7-.652-9.831-.563-1.435-2.287-2.463-3.812-2.037-1.605.445-2.715 2.596-3.478 3.916-3.182 5.527-3.92 12.288-3.406 18.58.153 1.981.712 3.909 1.644 5.662-1.085 1.208-2.57 1.98-4.178 2.175-1.806.173.605 2.076 1.634 1.98 1.589-.162 3.096-.787 4.335-1.798 1.487 1.422 3.532 2.098 5.57 1.841 2.102-.287 4.09-1.136 5.754-2.458.502.5 1.067.931 1.682 1.282 3.392 1.941 6.055.406 8.1-2.2.14.277.314.536.518.77 1.263 1.399 3.055 2.198 4.936 2.2-3.292 2.811-5.536 6.646-6.884 10.849-1.134 3.514-3.745 11.91 1.81 13.034 2.12.43 3.497-1.19 4.355-2.945 1.6-3.28 2.634-6.996 3.754-10.467 2.282-7.11 4.157-14.345 5.617-21.67.238-1.19-2.783-2.309-2.964-1.32zM103.057 6.504c.497-.995 1.064-1.954 1.696-2.869.057-.071.262-.296.476-.55.1.612.3 1.368.33 1.698.555 5.094-.108 10.248-1.935 15.033-.78 2.124-1.747 4.174-2.892 6.125-.347-1.633-.507-3.3-.476-4.968 0-4.944.457-10.017 2.801-14.469zm10.324 10.72c.431-2.135 1.035-4.231 1.805-6.268.364-.929.802-1.826 1.31-2.683.238-.444.519-.864.84-1.252.795-.809.561-.43.623.516.23 4.121-.44 8.244-1.963 12.078-.826 2.003-1.95 3.868-3.335 5.532-.042-.387-.066-.736-.08-1.023-.038-2.325.231-4.645.8-6.9zm10.11 34.747c-.53 1.014-1.216 2.218-1.573.555-.267-1.23.21-2.936.438-4.141.413-2.237 1.051-4.425 1.906-6.532 1.164-2.928 2.953-5.565 5.24-7.726-.18.655-.357 1.314-.547 1.965-1.506 5.235-2.935 11.04-5.465 15.884v-.005zM84.5 2.63c-.167-.018-.335.02-.478.108-6.445 2.187-10.691 8.043-11.544 14.683-.852 6.64 2.873 14.892 10.567 14.954 7.694.061 11.232-8.875 11.902-15.23.675-6.526-3.03-14.35-10.447-14.516zm6.473 17.743c-.655 2.42-1.771 4.694-3.289 6.697-1.857 2.282-5.324 4.45-8.22 2.648-4.975-3.095-4.592-10.842-2.772-15.558 1.625-4.429 5.15-7.912 9.618-9.506 3.189.19 4.95 4.54 5.42 7.13.517 2.866.081 5.837-.757 8.589z" transform="translate(-40 -20) translate(40 20)"/>
            </g>
        </g>
    </g>
</svg>
